<?xml version="1.0" standalone="no"?>
<!DOCTYPE svg PUBLIC "-//W3C//DTD SVG 20010904//EN"
 "http://www.w3.org/TR/2001/REC-SVG-20010904/DTD/svg10.dtd">
<svg version="1.0" xmlns="http://www.w3.org/2000/svg"
 width="448.000000pt" height="448.000000pt" viewBox="0 0 448.000000 448.000000"
 preserveAspectRatio="xMidYMid meet">
<metadata>
Created by potrace 1.11, written by Peter Selinger 2001-2013
</metadata>
<g transform="translate(0.000000,448.000000) scale(0.100000,-0.100000)"
fill="#000000" stroke="none">
<path d="M2159 4106 c-2 -2 -40 -6 -84 -9 -265 -19 -575 -125 -820 -280 -218
-138 -417 -332 -566 -554 -123 -182 -238 -470 -281 -702 -32 -171 -32 -497 0
-664 108 -571 465 -1057 974 -1326 374 -198 817 -263 1237 -181 630 124 1166
577 1389 1176 40 105 82 260 98 354 4 25 9 56 12 70 12 65 10 401 -3 490 -81
554 -376 1019 -840 1325 -97 63 -302 164 -405 199 -101 34 -268 74 -365 86
-84 11 -338 23 -346 16z m349 -230 c463 -75 866 -330 1124 -709 46 -68 118
-195 118 -208 0 -5 -414 -9 -924 -9 -508 0 -931 -3 -940 -6 -9 -3 -13 -10 -10
-15 3 -5 -1 -6 -9 -3 -38 14 -64 -98 -32 -142 8 -12 27 -26 42 -33 21 -8 283
-11 996 -9 l967 3 14 -50 c96 -348 86 -679 -31 -1025 -38 -112 -144 -313 -222
-418 -224 -304 -531 -519 -891 -623 -250 -73 -564 -82 -815 -23 -133 31 -301
89 -380 132 -167 91 -291 177 -388 270 -165 157 -269 296 -364 487 l-54 110
914 5 c751 4 917 7 930 19 9 7 14 18 10 24 -3 6 -1 7 5 3 17 -10 32 27 28 69
-2 28 -11 46 -34 67 l-32 28 -944 0 c-891 0 -945 1 -950 18 -43 145 -56 479
-25 657 136 778 758 1341 1544 1398 81 6 268 -3 353 -17z"/>
</g>
</svg>
